HIERARCHY
ROOT mixamorig:Hips
{
	OFFSET 0.000000 201.639420 0.000000
	CHANNELS 6 Xposition Yposition Zposition Xrotation Yrotation Zrotation
	JOINT mixamorig:Spine
	{
		OFFSET 0.006200 19.524994 -2.481800
		CHANNELS 3 Xrotation Yrotation Zrotation
		JOINT mixamorig:Spine1
		{
			OFFSET -0.000900 22.835007 -2.825400
			CHANNELS 3 Xrotation Yrotation Zrotation
			JOINT mixamorig:Spine2
			{
				OFFSET -0.020600 26.552490 -3.193300
				CHANNELS 3 Xrotation Yrotation Zrotation
				JOINT mixamorig:Neck
				{
					OFFSET -0.060000 30.701813 1.352200
					CHANNELS 3 Xrotation Yrotation Zrotation
					JOINT mixamorig:Head
					{
						OFFSET -0.087200 22.547607 3.670900
						CHANNELS 3 Xrotation Yrotation Zrotation
						JOINT mixamorig:HeadTop_End
						{
							OFFSET -0.830600 40.355194 7.893500
							CHANNELS 3 Xrotation Yrotation Zrotation
							End Site
							{
								OFFSET 0.000000 30.592346 0.000000
							}
						}
						JOINT mixamorig:RightEye
						{
							OFFSET -6.302100 18.118591 16.197100
							CHANNELS 3 Xrotation Yrotation Zrotation
							End Site
							{
								OFFSET 0.000000 30.592346 0.000000
							}
						}
						JOINT mixamorig:LeftEye
						{
							OFFSET 6.741500 18.382690 16.401899
							CHANNELS 3 Xrotation Yrotation Zrotation
							End Site
							{
								OFFSET 0.000000 30.592346 0.000000
							}
						}
					}
				}
				JOINT mixamorig:LeftShoulder
				{
					OFFSET 11.924900 18.230499 1.425400
					CHANNELS 3 Xrotation Yrotation Zrotation
					JOINT mixamorig:LeftArm
					{
						OFFSET 25.435989 -0.697632 -5.229300
						CHANNELS 3 Xrotation Yrotation Zrotation
						JOINT mixamorig:LeftForeArm
						{
							OFFSET 54.684776 0.000000 0.000000
							CHANNELS 3 Xrotation Yrotation Zrotation
							JOINT mixamorig:LeftHand
							{
								OFFSET 55.098175 0.000000 0.000000
								CHANNELS 3 Xrotation Yrotation Zrotation
								JOINT mixamorig:LeftHandMiddle1
								{
									OFFSET 23.369751 0.000000 0.000000
									CHANNELS 3 Xrotation Yrotation Zrotation
									JOINT mixamorig:LeftHandMiddle2
									{
										OFFSET 6.378677 0.000000 0.000000
										CHANNELS 3 Xrotation Yrotation Zrotation
										JOINT mixamorig:LeftHandMiddle3
										{
											OFFSET 6.148331 0.000000 0.000000
											CHANNELS 3 Xrotation Yrotation Zrotation
											JOINT mixamorig:LeftHandMiddle4
											{
												OFFSET 6.582504 0.000000 0.000000
												CHANNELS 3 Xrotation Yrotation Zrotation
												End Site
												{
													OFFSET -1.168900 6.395691 1.028606
												}
											}
										}
									}
								}
								JOINT mixamorig:LeftHandThumb1
								{
									OFFSET 7.235672 -3.848206 5.434273
									CHANNELS 3 Xrotation Yrotation Zrotation
									JOINT mixamorig:LeftHandThumb2
									{
										OFFSET 6.568451 -3.792297 3.792300
										CHANNELS 3 Xrotation Yrotation Zrotation
										JOINT mixamorig:LeftHandThumb3
										{
											OFFSET 6.063080 -3.500519 3.500518
											CHANNELS 3 Xrotation Yrotation Zrotation
											JOINT mixamorig:LeftHandThumb4
											{
												OFFSET 4.793182 -2.767334 2.767349
												CHANNELS 3 Xrotation Yrotation Zrotation
												End Site
												{
													OFFSET 0.101639 6.054260 1.275483
												}
											}
										}
									}
								}
								JOINT mixamorig:LeftHandIndex1
								{
									OFFSET 23.101074 -0.309540 4.992809
									CHANNELS 3 Xrotation Yrotation Zrotation
									JOINT mixamorig:LeftHandIndex2
									{
										OFFSET 6.226883 0.000000 0.000000
										CHANNELS 3 Xrotation Yrotation Zrotation
										JOINT mixamorig:LeftHandIndex3
										{
											OFFSET 6.094330 0.000000 0.000000
											CHANNELS 3 Xrotation Yrotation Zrotation
											JOINT mixamorig:LeftHandIndex4
											{
												OFFSET 5.482605 0.000000 0.000000
												CHANNELS 3 Xrotation Yrotation Zrotation
												End Site
												{
													OFFSET -1.427902 5.233032 0.797164
												}
											}
										}
									}
								}
								JOINT mixamorig:LeftHandRing1
								{
									OFFSET 22.299240 0.021149 -3.964172
									CHANNELS 3 Xrotation Yrotation Zrotation
									JOINT mixamorig:LeftHandRing2
									{
										OFFSET 6.321869 0.000000 0.000000
										CHANNELS 3 Xrotation Yrotation Zrotation
										JOINT mixamorig:LeftHandRing3
										{
											OFFSET 5.899796 0.000000 0.000000
											CHANNELS 3 Xrotation Yrotation Zrotation
											JOINT mixamorig:LeftHandRing4
											{
												OFFSET 6.517899 0.000000 0.000000
												CHANNELS 3 Xrotation Yrotation Zrotation
												End Site
												{
													OFFSET -1.637299 6.232208 0.980890
												}
											}
										}
									}
								}
								JOINT mixamorig:LeftHandPinky1
								{
									OFFSET 20.463791 -0.302338 -8.562233
									CHANNELS 3 Xrotation Yrotation Zrotation
									JOINT mixamorig:LeftHandPinky2
									{
										OFFSET 6.908646 0.000000 0.000000
										CHANNELS 3 Xrotation Yrotation Zrotation
										JOINT mixamorig:LeftHandPinky3
										{
											OFFSET 4.622849 0.000000 0.000000
											CHANNELS 3 Xrotation Yrotation Zrotation
											JOINT mixamorig:LeftHandPinky4
											{
												OFFSET 5.216080 0.000000 0.000000
												CHANNELS 3 Xrotation Yrotation Zrotation
												End Site
												{
													OFFSET -0.606308 5.116241 0.814926
												}
											}
										}
									}
								}
							}
						}
					}
				}
				JOINT mixamorig:RightShoulder
				{
					OFFSET -12.001300 18.284088 1.348900
					CHANNELS 3 Xrotation Yrotation Zrotation
					JOINT mixamorig:RightArm
					{
						OFFSET -25.308500 -0.751312 -5.164599
						CHANNELS 3 Xrotation Yrotation Zrotation
						JOINT mixamorig:RightForeArm
						{
							OFFSET -54.684429 0.000000 0.000000
							CHANNELS 3 Xrotation Yrotation Zrotation
							JOINT mixamorig:RightHand
							{
								OFFSET -55.150291 0.000000 0.000000
								CHANNELS 3 Xrotation Yrotation Zrotation
								JOINT mixamorig:RightHandMiddle1
								{
									OFFSET -23.317566 0.000000 0.000000
									CHANNELS 3 Xrotation Yrotation Zrotation
									JOINT mixamorig:RightHandMiddle2
									{
										OFFSET -6.378403 0.000000 0.000000
										CHANNELS 3 Xrotation Yrotation Zrotation
										JOINT mixamorig:RightHandMiddle3
										{
											OFFSET -6.148193 0.000000 0.000000
											CHANNELS 3 Xrotation Yrotation Zrotation
											JOINT mixamorig:RightHandMiddle4
											{
												OFFSET -6.583389 0.000000 0.000000
												CHANNELS 3 Xrotation Yrotation Zrotation
												End Site
												{
													OFFSET 1.171692 6.395905 1.029786
												}
											}
										}
									}
								}
								JOINT mixamorig:RightHandThumb1
								{
									OFFSET -7.190521 -3.860474 5.435846
									CHANNELS 3 Xrotation Yrotation Zrotation
									JOINT mixamorig:RightHandThumb2
									{
										OFFSET -6.567429 -3.791718 3.791708
										CHANNELS 3 Xrotation Yrotation Zrotation
										JOINT mixamorig:RightHandThumb3
										{
											OFFSET -6.062469 -3.500153 3.500166
											CHANNELS 3 Xrotation Yrotation Zrotation
											JOINT mixamorig:RightHandThumb4
											{
												OFFSET -4.792618 -2.767029 2.767022
												CHANNELS 3 Xrotation Yrotation Zrotation
												End Site
												{
													OFFSET -0.100327 6.053253 1.276754
												}
											}
										}
									}
								}
								JOINT mixamorig:RightHandIndex1
								{
									OFFSET -23.048981 -0.310791 4.992554
									CHANNELS 3 Xrotation Yrotation Zrotation
									JOINT mixamorig:RightHandIndex2
									{
										OFFSET -6.227539 0.000000 0.000000
										CHANNELS 3 Xrotation Yrotation Zrotation
										JOINT mixamorig:RightHandIndex3
										{
											OFFSET -6.095047 0.000000 0.000000
											CHANNELS 3 Xrotation Yrotation Zrotation
											JOINT mixamorig:RightHandIndex4
											{
												OFFSET -5.484772 0.000000 0.000000
												CHANNELS 3 Xrotation Yrotation Zrotation
												End Site
												{
													OFFSET 1.420593 5.237305 0.797056
												}
											}
										}
									}
								}
								JOINT mixamorig:RightHandRing1
								{
									OFFSET -22.246323 0.020569 -3.963762
									CHANNELS 3 Xrotation Yrotation Zrotation
									JOINT mixamorig:RightHandRing2
									{
										OFFSET -6.322128 0.000000 0.000000
										CHANNELS 3 Xrotation Yrotation Zrotation
										JOINT mixamorig:RightHandRing3
										{
											OFFSET -5.900024 0.000000 0.000000
											CHANNELS 3 Xrotation Yrotation Zrotation
											JOINT mixamorig:RightHandRing4
											{
												OFFSET -6.518356 0.000000 0.000000
												CHANNELS 3 Xrotation Yrotation Zrotation
												End Site
												{
													OFFSET 1.636398 6.232697 0.982186
												}
											}
										}
									}
								}
								JOINT mixamorig:RightHandPinky1
								{
									OFFSET -20.411011 -0.303314 -8.561701
									CHANNELS 3 Xrotation Yrotation Zrotation
									JOINT mixamorig:RightHandPinky2
									{
										OFFSET -6.907349 0.000000 0.000000
										CHANNELS 3 Xrotation Yrotation Zrotation
										JOINT mixamorig:RightHandPinky3
										{
											OFFSET -4.623840 0.000000 0.000000
											CHANNELS 3 Xrotation Yrotation Zrotation
											JOINT mixamorig:RightHandPinky4
											{
												OFFSET -5.218353 0.000000 0.000000
												CHANNELS 3 Xrotation Yrotation Zrotation
												End Site
												{
													OFFSET 0.602097 5.118835 0.816273
												}
											}
										}
									}
								}
							}
						}
					}
				}
			}
		}
	}
	JOINT mixamorig:LeftUpLeg
	{
		OFFSET 18.168400 -13.561905 -0.039000
		CHANNELS 3 Xrotation Yrotation Zrotation
		JOINT mixamorig:LeftLeg
		{
			OFFSET 0.577358 -80.825211 -3.695000
			CHANNELS 3 Xrotation Yrotation Zrotation
			JOINT mixamorig:LeftFoot
			{
				OFFSET -0.577356 -83.370262 -6.520700
				CHANNELS 3 Xrotation Yrotation Zrotation
				JOINT mixamorig:LeftToeBase
				{
					OFFSET 0.750401 -20.798306 25.135401
					CHANNELS 3 Xrotation Yrotation Zrotation
					JOINT mixamorig:LeftToe_End
					{
						OFFSET -0.000500 0.001200 19.917799
						CHANNELS 3 Xrotation Yrotation Zrotation
						End Site
						{
							OFFSET 0.000000 19.917805 0.000000
						}
					}
				}
			}
		}
	}
	JOINT mixamorig:RightUpLeg
	{
		OFFSET -18.162500 -13.585098 -0.041000
		CHANNELS 3 Xrotation Yrotation Zrotation
		JOINT mixamorig:RightLeg
		{
			OFFSET -0.595024 -80.945297 -3.631900
			CHANNELS 3 Xrotation Yrotation Zrotation
			JOINT mixamorig:RightFoot
			{
				OFFSET 0.595024 -83.218193 -6.561200
				CHANNELS 3 Xrotation Yrotation Zrotation
				JOINT mixamorig:RightToeBase
				{
					OFFSET -0.753601 -20.807106 25.115000
					CHANNELS 3 Xrotation Yrotation Zrotation
					JOINT mixamorig:RightToe_End
					{
						OFFSET 0.000299 0.001700 19.918200
						CHANNELS 3 Xrotation Yrotation Zrotation
						End Site
						{
							OFFSET 0.000000 19.918203 0.000000
						}
					}
				}
			}
		}
	}
}
MOTION
Frames: 4
Frame Time: 0.033333
24.113350 182.571869 227.441711 0.025580 -38.014330 0.872052 3.837868 0.000656 0.196931 7.675810 -0.008233 0.656785 7.675805 -0.008237 0.656786 9.430019 2.867720 6.418027 -0.510008 25.680208 -18.458504 0.000000 0.000000 -0.000000 0.000000 0.000000 -0.000000 0.000000 0.000000 -0.000000 0.520280 -5.557261 -5.378824 -66.414622 -23.997970 -66.072948 0.091789 -54.369921 0.113071 -92.451228 1.074415 16.336557 1.545969 -9.541003 -47.219017 -5.379893 -4.130104 -98.553899 -0.000000 -0.000001 -0.000005 -0.000002 0.000002 0.000003 -11.681336 -1.386984 19.278771 -2.561587 1.557950 2.733565 0.000013 -0.000001 0.000012 0.000003 0.000006 -0.000000 -0.008665 -2.430599 1.545780 1.412638 1.230425 -113.773664 0.000008 -0.000002 -0.000009 -0.000000 -0.000001 -0.000001 -3.769738 -17.550451 -68.269175 -5.814591 -5.296466 -101.280388 -0.000002 0.000011 0.000002 -0.000000 0.000002 -0.000001 -8.784704 -14.195337 -74.601908 -7.745690 -9.401298 -99.053159 -0.000001 -0.000005 0.000001 -0.000001 0.000001 0.000001 0.373893 9.032615 6.057621 -28.165161 68.449786 34.789637 0.507742 75.544481 -0.500880 -55.239455 -3.936584 -20.194274 -2.200714 -2.191367 59.974880 -11.333608 1.304672 101.375355 -0.000007 0.000007 -0.000013 0.000001 -0.000001 0.000001 11.406789 -0.745919 10.777392 17.778426 -14.832280 -11.843357 0.000001 -0.000004 -0.000003 0.000001 -0.000000 0.000000 -7.766730 -2.132701 17.127369 -0.780860 -1.851314 83.350062 0.000017 -0.000005 0.000001 0.000002 0.000001 -0.000000 -6.662044 -2.169621 74.620090 -15.926966 7.668130 95.919926 -0.000009 -0.000003 -0.000010 0.000000 -0.000002 0.000001 -13.810327 -5.738193 81.209631 -9.284887 9.771656 84.621304 0.000002 0.000006 0.000004 -0.000002 -0.000000 0.000000 -34.677642 9.377882 0.864198 52.581146 -0.303328 -1.865678 -19.001424 7.767629 5.674367 -7.003257 -0.038100 0.077766 0.000000 0.000000 0.000000 -13.042136 10.478038 -17.699853 55.887026 0.760843 1.999299 -1.336425 -2.886317 -1.608055 -24.826631 -3.849107 17.339733 0.000000 -0.000004 0.000001 
24.981712 182.503860 230.323166 -0.297416 -37.678308 0.815265 3.911752 -0.069263 0.224422 7.824727 -0.161211 0.864849 7.824725 -0.161212 0.864845 9.506787 2.857089 6.272777 -0.360126 25.664552 -18.641171 -0.000001 0.000000 -0.000000 -0.000001 0.000000 -0.000000 -0.000001 0.000000 -0.000000 0.516078 -5.632396 -5.470365 -66.778425 -22.904992 -66.759799 0.086775 -54.329623 0.106870 -91.626025 1.498459 16.245139 1.545968 -9.541010 -47.219020 -5.379895 -4.130110 -98.553906 0.000001 0.000001 -0.000002 -0.000000 0.000000 0.000004 -11.681336 -1.386984 19.278774 -2.561588 1.557947 2.733568 0.000011 0.000002 0.000010 0.000004 -0.000005 0.000003 -0.008667 -2.430604 1.545780 1.412640 1.230431 -113.773664 0.000009 -0.000004 -0.000006 0.000003 -0.000001 0.000000 -3.769736 -17.550460 -68.269175 -5.814590 -5.296464 -101.280381 -0.000003 0.000011 0.000001 0.000000 0.000001 -0.000002 -8.784702 -14.195343 -74.601908 -7.745692 -9.401305 -99.053159 0.000000 -0.000006 -0.000000 0.000000 -0.000001 -0.000000 0.371664 9.012648 6.118660 -27.512374 68.646844 33.908990 0.494689 75.500030 -0.488201 -55.376069 -4.167292 -20.159643 -2.200713 -2.191366 59.974880 -11.333606 1.304671 101.375348 -0.000009 0.000006 -0.000011 -0.000001 -0.000000 0.000001 11.406789 -0.745919 10.777393 17.778422 -14.832280 -11.843358 0.000003 -0.000004 -0.000003 0.000004 0.000000 -0.000000 -7.766729 -2.132701 17.127369 -0.780859 -1.851314 83.350062 0.000018 -0.000003 0.000002 -0.000000 -0.000000 0.000000 -6.662042 -2.169622 74.620090 -15.926965 7.668130 95.919926 -0.000010 -0.000004 -0.000008 -0.000001 -0.000001 0.000002 -13.810328 -5.738192 81.209631 -9.284887 9.771656 84.621304 0.000003 0.000002 0.000007 -0.000001 -0.000002 -0.000001 -33.544657 9.120120 -0.624896 52.506820 -0.279666 -1.861560 -19.885496 8.302465 6.508416 -7.074920 -0.038219 0.077916 0.000000 -0.000001 -0.000000 -15.937241 12.226357 -17.638070 60.379548 0.859974 2.138440 5.679659 -3.610395 -2.346605 -25.216411 -4.855995 19.413394 0.000002 -0.000003 0.000001 
25.732204 182.245972 232.901978 -0.641702 -37.323811 0.766871 4.000378 -0.156017 0.237279 8.004140 -0.343312 1.060815 8.004148 -0.343327 1.060816 9.572498 2.840335 6.105416 -0.189565 25.635197 -18.840839 -0.000002 0.000001 -0.000000 -0.000002 0.000001 -0.000000 -0.000002 0.000001 -0.000000 0.512771 -5.686761 -5.550267 -67.397841 -21.480113 -67.576942 0.079564 -54.339530 0.098074 -90.489215 2.153879 16.268146 1.545975 -9.541006 -47.219024 -5.379897 -4.130113 -98.553913 -0.000001 0.000001 -0.000004 0.000001 -0.000000 0.000002 -11.681338 -1.386979 19.278774 -2.561587 1.557947 2.733566 0.000015 0.000002 0.000014 -0.000001 -0.000001 0.000002 -0.008665 -2.430604 1.545778 1.412639 1.230431 -113.773671 0.000007 -0.000001 -0.000008 -0.000000 -0.000000 -0.000001 -3.769733 -17.550456 -68.269175 -5.814590 -5.296465 -101.280388 -0.000002 0.000008 0.000000 -0.000000 -0.000001 -0.000000 -8.784696 -14.195342 -74.601915 -7.745692 -9.401300 -99.053152 -0.000002 -0.000009 0.000000 -0.000001 0.000003 0.000000 0.368632 9.000406 6.191918 -27.301810 68.940241 33.327430 0.469535 75.368658 -0.463873 -55.552200 -4.475885 -20.069558 -2.200714 -2.191367 59.974880 -11.333610 1.304672 101.375355 -0.000008 0.000008 -0.000010 0.000000 -0.000001 0.000002 11.406790 -0.745919 10.777394 17.778431 -14.832282 -11.843358 0.000005 -0.000003 -0.000002 0.000000 0.000000 0.000000 -7.766730 -2.132701 17.127374 -0.780858 -1.851314 83.350062 0.000016 -0.000002 0.000001 -0.000000 0.000000 -0.000000 -6.662043 -2.169621 74.620090 -15.926965 7.668132 95.919926 -0.000011 -0.000002 -0.000012 0.000001 -0.000000 0.000001 -13.810327 -5.738194 81.209631 -9.284888 9.771652 84.621304 -0.000001 0.000003 0.000008 -0.000002 -0.000000 0.000001 -32.586501 8.992841 -1.909117 52.644663 -0.272388 -1.864486 -20.776080 8.600047 7.282030 -7.146739 -0.038374 0.078062 0.000001 -0.000002 -0.000000 -19.267084 14.301715 -17.126653 64.968466 0.954033 2.274476 13.416031 -4.984602 -2.634666 -22.939687 -5.966540 21.430912 0.000003 0.000000 -0.000001 
26.386080 181.913940 235.313599 -0.979418 -37.079543 0.788035 4.097617 -0.239384 0.192851 8.201190 -0.514429 1.135630 8.201181 -0.514423 1.135627 9.622090 2.829446 5.957565 -0.114140 25.609422 -19.022806 0.000000 0.000000 -0.000000 0.000000 0.000000 -0.000000 0.000000 0.000000 -0.000000 0.508101 -5.745676 -5.682566 -67.960150 -20.432914 -68.016301 0.074584 -54.476363 0.091685 -89.572139 2.743176 16.478397 1.545969 -9.541005 -47.219024 -5.379898 -4.130113 -98.553913 0.000003 -0.000002 0.000001 -0.000002 -0.000000 0.000002 -11.681338 -1.386987 19.278778 -2.561587 1.557944 2.733570 0.000011 -0.000000 0.000015 -0.000001 -0.000002 0.000001 -0.008663 -2.430609 1.545781 1.412639 1.230433 -113.773664 0.000013 0.000002 -0.000006 -0.000000 0.000001 -0.000001 -3.769733 -17.550461 -68.269175 -5.814594 -5.296466 -101.280388 -0.000002 0.000006 -0.000003 -0.000001 -0.000001 -0.000000 -8.784701 -14.195346 -74.601915 -7.745693 -9.401300 -99.053159 0.000000 -0.000008 -0.000001 0.000000 0.000001 -0.000000 0.367425 8.994327 6.221503 -27.729415 69.248344 33.394239 0.446955 75.158165 -0.441725 -55.710960 -4.692011 -19.928993 -2.200714 -2.191366 59.974887 -11.333604 1.304670 101.375355 -0.000008 0.000008 -0.000010 -0.000001 0.000000 0.000001 11.406789 -0.745919 10.777392 17.778426 -14.832280 -11.843358 0.000006 -0.000004 -0.000003 -0.000002 0.000001 -0.000000 -7.766731 -2.132701 17.127367 -0.780859 -1.851314 83.350062 0.000016 -0.000004 0.000003 0.000001 -0.000000 -0.000001 -6.662044 -2.169620 74.620090 -15.926966 7.668129 95.919926 -0.000005 0.000001 -0.000011 0.000001 0.000000 0.000003 -13.810327 -5.738192 81.209631 -9.284887 9.771657 84.621304 0.000002 0.000005 0.000008 0.000000 -0.000000 -0.000000 -31.653026 9.254995 -2.953695 52.813161 -0.274940 -1.869070 -21.646329 8.538735 8.015107 -7.218295 -0.038485 0.078209 -0.000000 -0.000003 -0.000000 -22.419727 16.528979 -16.304761 69.277612 1.035849 2.395601 17.873845 -5.473997 -2.308201 -14.823572 -4.848078 19.018464 -0.000001 0.000002 0.000000 
